<mxfile host="Electron" modified="2024-04-04T02:40:17.322Z" agent="Mozilla/5.0 (Windows NT 10.0; Win64; x64) AppleWebKit/537.36 (KHTML, like Gecko) draw.io/24.1.0 Chrome/120.0.6099.109 Electron/28.1.0 Safari/537.36" etag="H2wcsmUeSqJlE1o5tpn-" version="24.1.0" type="device" pages="2">
  <diagram name="Flowchart" id="vloU3t5Wlt9ldOoOrKPs">
    <mxGraphModel dx="2171" dy="868" grid="1" gridSize="10" guides="1" tooltips="1" connect="1" arrows="1" fold="1" page="1" pageScale="1" pageWidth="827" pageHeight="1169" math="0" shadow="0">
      <root>
        <mxCell id="0" />
        <mxCell id="1" parent="0" />
        <UserObject label="" linkTarget="_blank" id="7RS__Xc4e9TwGVU_Hfns-1">
          <mxCell style="rounded=0;whiteSpace=wrap;html=1;fillColor=none;strokeWidth=3;strokeColor=#0F3D59;fillStyle=auto;gradientColor=none;" parent="1" vertex="1">
            <mxGeometry x="-221" y="90" width="1270" height="650" as="geometry" />
          </mxCell>
        </UserObject>
        <mxCell id="VBYkh6h_Ym9ZZbjOG4hd-50" value="" style="rounded=0;whiteSpace=wrap;html=1;dashed=1;strokeWidth=2;fillColor=#F2F2F2;" parent="1" vertex="1">
          <mxGeometry x="827" y="200" width="190" height="410" as="geometry" />
        </mxCell>
        <mxCell id="VBYkh6h_Ym9ZZbjOG4hd-43" style="edgeStyle=orthogonalEdgeStyle;rounded=0;orthogonalLoop=1;jettySize=auto;html=1;exitX=0.5;exitY=1;exitDx=0;exitDy=0;entryX=1;entryY=0.5;entryDx=0;entryDy=0;dashed=1;" parent="1" source="VBYkh6h_Ym9ZZbjOG4hd-1" target="VBYkh6h_Ym9ZZbjOG4hd-42" edge="1">
          <mxGeometry relative="1" as="geometry" />
        </mxCell>
        <mxCell id="rrGUtz44H70XvmBhGxrC-1" style="edgeStyle=orthogonalEdgeStyle;rounded=0;orthogonalLoop=1;jettySize=auto;html=1;exitX=0;exitY=0.5;exitDx=0;exitDy=0;entryX=1;entryY=0.5;entryDx=0;entryDy=0;dashed=1;" parent="1" source="VBYkh6h_Ym9ZZbjOG4hd-1" target="d2Tv3zx6Hwn4MQKzUQaN-2" edge="1">
          <mxGeometry relative="1" as="geometry" />
        </mxCell>
        <mxCell id="rrGUtz44H70XvmBhGxrC-2" style="edgeStyle=orthogonalEdgeStyle;rounded=0;orthogonalLoop=1;jettySize=auto;html=1;exitX=0;exitY=0.5;exitDx=0;exitDy=0;entryX=1;entryY=0.5;entryDx=0;entryDy=0;dashed=1;" parent="1" source="VBYkh6h_Ym9ZZbjOG4hd-1" target="VBYkh6h_Ym9ZZbjOG4hd-33" edge="1">
          <mxGeometry relative="1" as="geometry" />
        </mxCell>
        <mxCell id="VBYkh6h_Ym9ZZbjOG4hd-1" value="" style="rounded=0;whiteSpace=wrap;html=1;dashed=1;strokeWidth=2;fillColor=#F2F2F2;" parent="1" vertex="1">
          <mxGeometry x="-40" y="200" width="165.14" height="410" as="geometry" />
        </mxCell>
        <mxCell id="GbJGEbd5tJttWYPxzcn8-22" value="" style="rounded=0;whiteSpace=wrap;html=1;dashed=1;strokeWidth=2;fillColor=#F2F2F2;" parent="1" vertex="1">
          <mxGeometry x="600" y="200" width="180" height="410" as="geometry" />
        </mxCell>
        <mxCell id="GbJGEbd5tJttWYPxzcn8-20" value="" style="rounded=0;whiteSpace=wrap;html=1;dashed=1;strokeWidth=2;fillColor=#F2F2F2;" parent="1" vertex="1">
          <mxGeometry x="385" y="200" width="160" height="410" as="geometry" />
        </mxCell>
        <mxCell id="GbJGEbd5tJttWYPxzcn8-18" value="" style="rounded=0;whiteSpace=wrap;html=1;dashed=1;strokeWidth=2;fillColor=#F2F2F2;" parent="1" vertex="1">
          <mxGeometry x="170" y="200" width="170" height="410" as="geometry" />
        </mxCell>
        <mxCell id="GbJGEbd5tJttWYPxzcn8-8" style="edgeStyle=orthogonalEdgeStyle;rounded=0;orthogonalLoop=1;jettySize=auto;html=1;exitX=1;exitY=0.5;exitDx=0;exitDy=0;entryX=0;entryY=0.5;entryDx=0;entryDy=0;entryPerimeter=0;fontStyle=1;fontSize=14;" parent="1" source="GbJGEbd5tJttWYPxzcn8-3" target="GbJGEbd5tJttWYPxzcn8-11" edge="1">
          <mxGeometry relative="1" as="geometry">
            <mxPoint x="380" y="415" as="targetPoint" />
          </mxGeometry>
        </mxCell>
        <mxCell id="GbJGEbd5tJttWYPxzcn8-3" value="ETL" style="rounded=0;whiteSpace=wrap;html=1;fontStyle=1;fontSize=15;fillColor=#FFFFFF;strokeWidth=2;strokeColor=#000000;" parent="1" vertex="1">
          <mxGeometry x="190" y="385" width="135" height="60" as="geometry" />
        </mxCell>
        <mxCell id="GbJGEbd5tJttWYPxzcn8-7" style="edgeStyle=orthogonalEdgeStyle;rounded=0;orthogonalLoop=1;jettySize=auto;html=1;exitX=1;exitY=0.5;exitDx=0;exitDy=0;exitPerimeter=0;entryX=0.5;entryY=1;entryDx=0;entryDy=0;fontStyle=1;fontSize=14;" parent="1" source="GbJGEbd5tJttWYPxzcn8-5" target="GbJGEbd5tJttWYPxzcn8-3" edge="1">
          <mxGeometry relative="1" as="geometry" />
        </mxCell>
        <mxCell id="GbJGEbd5tJttWYPxzcn8-5" value="Database" style="strokeWidth=2;html=1;shape=mxgraph.flowchart.database;whiteSpace=wrap;verticalAlign=middle;fontStyle=1;fontSize=15;fillColor=#6C8EBF;strokeColor=#0F3D59;fontColor=#FFFFFF;" parent="1" vertex="1">
          <mxGeometry x="-15" y="340" width="120" height="90" as="geometry" />
        </mxCell>
        <mxCell id="GbJGEbd5tJttWYPxzcn8-10" style="edgeStyle=orthogonalEdgeStyle;rounded=0;orthogonalLoop=1;jettySize=auto;html=1;exitX=1;exitY=0.5;exitDx=0;exitDy=0;exitPerimeter=0;entryX=0.5;entryY=1;entryDx=0;entryDy=0;fontStyle=1;fontSize=14;" parent="1" source="GbJGEbd5tJttWYPxzcn8-9" target="GbJGEbd5tJttWYPxzcn8-3" edge="1">
          <mxGeometry relative="1" as="geometry" />
        </mxCell>
        <mxCell id="GbJGEbd5tJttWYPxzcn8-9" value="&lt;b style=&quot;font-size: 15px;&quot;&gt;Files&lt;/b&gt;" style="strokeWidth=2;html=1;shape=mxgraph.flowchart.document2;whiteSpace=wrap;size=0.25;fillColor=#6C8EBF;strokeColor=#0F3D59;fontColor=#FFFFFF;fontSize=15;" parent="1" vertex="1">
          <mxGeometry x="-20" y="475" width="120" height="70" as="geometry" />
        </mxCell>
        <mxCell id="VBYkh6h_Ym9ZZbjOG4hd-77" style="edgeStyle=orthogonalEdgeStyle;rounded=0;orthogonalLoop=1;jettySize=auto;html=1;exitX=1;exitY=0.5;exitDx=0;exitDy=0;exitPerimeter=0;entryX=0;entryY=0.5;entryDx=0;entryDy=0;" parent="1" source="GbJGEbd5tJttWYPxzcn8-11" target="GbJGEbd5tJttWYPxzcn8-16" edge="1">
          <mxGeometry relative="1" as="geometry" />
        </mxCell>
        <mxCell id="GbJGEbd5tJttWYPxzcn8-11" value="&lt;p style=&quot;line-height: 100%; font-size: 15px;&quot;&gt;&lt;font color=&quot;#ffffff&quot; style=&quot;font-size: 15px;&quot;&gt;&lt;span style=&quot;background-color: rgb(103, 171, 159); font-size: 15px;&quot;&gt;Processed Data Model&lt;/span&gt;&lt;/font&gt;&lt;/p&gt;" style="strokeWidth=2;html=1;shape=mxgraph.flowchart.database;whiteSpace=wrap;fontStyle=1;fontSize=15;fillColor=#67AB9F;" parent="1" vertex="1">
          <mxGeometry x="402.5" y="342.5" width="125" height="145" as="geometry" />
        </mxCell>
        <mxCell id="VBYkh6h_Ym9ZZbjOG4hd-67" style="edgeStyle=orthogonalEdgeStyle;rounded=0;orthogonalLoop=1;jettySize=auto;html=1;exitX=0.5;exitY=1;exitDx=0;exitDy=0;entryX=0.5;entryY=0;entryDx=0;entryDy=0;dashed=1;" parent="1" source="GbJGEbd5tJttWYPxzcn8-16" target="VBYkh6h_Ym9ZZbjOG4hd-35" edge="1">
          <mxGeometry relative="1" as="geometry" />
        </mxCell>
        <mxCell id="GSxPGnJnoU_D9WCwpDK0-3" style="edgeStyle=orthogonalEdgeStyle;rounded=0;orthogonalLoop=1;jettySize=auto;html=1;exitX=1;exitY=0.5;exitDx=0;exitDy=0;entryX=0;entryY=0.5;entryDx=0;entryDy=0;" parent="1" source="GbJGEbd5tJttWYPxzcn8-16" target="VBYkh6h_Ym9ZZbjOG4hd-52" edge="1">
          <mxGeometry relative="1" as="geometry" />
        </mxCell>
        <mxCell id="GbJGEbd5tJttWYPxzcn8-16" value="Dashboard Setup" style="rounded=0;whiteSpace=wrap;html=1;fontStyle=1;fontSize=15;fillColor=#FFFFFF;strokeColor=#000000;strokeWidth=2;" parent="1" vertex="1">
          <mxGeometry x="615" y="385" width="150" height="60" as="geometry" />
        </mxCell>
        <mxCell id="GbJGEbd5tJttWYPxzcn8-19" value="&lt;b style=&quot;border-color: var(--border-color);&quot;&gt;Activity&amp;nbsp;&lt;/b&gt;&lt;b style=&quot;font-size: 20px;&quot;&gt;2: Set up Pipeline for ETL&lt;/b&gt;" style="text;html=1;strokeColor=none;fillColor=none;align=center;verticalAlign=middle;whiteSpace=wrap;rounded=0;fontSize=20;" parent="1" vertex="1">
          <mxGeometry x="200" y="230" width="110" height="50" as="geometry" />
        </mxCell>
        <mxCell id="GbJGEbd5tJttWYPxzcn8-21" value="&lt;b style=&quot;border-color: var(--border-color);&quot;&gt;Activity&lt;/b&gt;&amp;nbsp;3: Analyzing" style="text;html=1;strokeColor=none;fillColor=none;align=center;verticalAlign=middle;whiteSpace=wrap;rounded=0;fontStyle=1;fontSize=20;" parent="1" vertex="1">
          <mxGeometry x="395" y="230" width="140" height="30" as="geometry" />
        </mxCell>
        <mxCell id="GbJGEbd5tJttWYPxzcn8-23" value="&lt;b style=&quot;border-color: var(--border-color);&quot;&gt;Activity&amp;nbsp;&lt;/b&gt;4: Visualization" style="text;html=1;strokeColor=none;fillColor=none;align=center;verticalAlign=middle;whiteSpace=wrap;rounded=0;fontStyle=1;fontSize=20;" parent="1" vertex="1">
          <mxGeometry x="617.1499999999999" y="210" width="145.7" height="30" as="geometry" />
        </mxCell>
        <mxCell id="VBYkh6h_Ym9ZZbjOG4hd-2" value="&lt;b style=&quot;font-size: 20px;&quot;&gt;Activity 1: Explore and Define the Scope&lt;/b&gt;" style="text;html=1;strokeColor=none;fillColor=none;align=center;verticalAlign=middle;whiteSpace=wrap;rounded=0;fontSize=20;" parent="1" vertex="1">
          <mxGeometry x="-20" y="220" width="130" height="60" as="geometry" />
        </mxCell>
        <UserObject label="&lt;div style=&quot;font-size: 15px;&quot;&gt;Which tables/files are commonly used?&lt;/div&gt;" id="VBYkh6h_Ym9ZZbjOG4hd-33">
          <mxCell style="rounded=1;whiteSpace=wrap;html=1;absoluteArcSize=1;arcSize=14;strokeWidth=2;fillColor=#fff2cc;strokeColor=#000000;dashed=1;dashPattern=8 8;fontSize=15;" parent="1" vertex="1">
            <mxGeometry x="-210" y="190" width="100" height="130" as="geometry" />
          </mxCell>
        </UserObject>
        <UserObject label="Any sample can be modeled?" id="VBYkh6h_Ym9ZZbjOG4hd-35">
          <mxCell style="rounded=1;whiteSpace=wrap;html=1;absoluteArcSize=1;arcSize=14;strokeWidth=2;fillColor=#fff2cc;strokeColor=#000000;dashed=1;dashPattern=8 8;fontSize=15;" parent="1" vertex="1">
            <mxGeometry x="810" y="570" width="113" height="130" as="geometry" />
          </mxCell>
        </UserObject>
        <UserObject label="&lt;b style=&quot;font-size: 15px;&quot;&gt;Contact ponts:&lt;br style=&quot;font-size: 15px;&quot;&gt;&lt;/b&gt;Database Access, VPN, NDA signing, ..." id="VBYkh6h_Ym9ZZbjOG4hd-42">
          <mxCell style="rounded=1;whiteSpace=wrap;html=1;absoluteArcSize=1;arcSize=14;strokeWidth=2;fillColor=#fff2cc;strokeColor=#000000;dashed=1;dashPattern=8 8;fontSize=15;" parent="1" vertex="1">
            <mxGeometry x="-210" y="530" width="100" height="130" as="geometry" />
          </mxCell>
        </UserObject>
        <mxCell id="VBYkh6h_Ym9ZZbjOG4hd-51" value="&lt;b style=&quot;border-color: var(--border-color);&quot;&gt;Activity 5&lt;/b&gt;: Documentation and Support" style="text;html=1;strokeColor=none;fillColor=none;align=center;verticalAlign=middle;whiteSpace=wrap;rounded=0;fontStyle=1;fontSize=20;" parent="1" vertex="1">
          <mxGeometry x="850.55" y="220" width="142.9" height="40" as="geometry" />
        </mxCell>
        <mxCell id="HJFyXNNvjM7KsBiyhTV4-2" style="edgeStyle=orthogonalEdgeStyle;rounded=0;orthogonalLoop=1;jettySize=auto;html=1;entryX=0.5;entryY=0;entryDx=0;entryDy=0;" parent="1" source="VBYkh6h_Ym9ZZbjOG4hd-52" target="VBYkh6h_Ym9ZZbjOG4hd-57" edge="1">
          <mxGeometry relative="1" as="geometry" />
        </mxCell>
        <mxCell id="VBYkh6h_Ym9ZZbjOG4hd-52" value="Documentation" style="rounded=0;whiteSpace=wrap;html=1;fontStyle=1;fontSize=15;fillColor=#fff2cc;strokeWidth=2;strokeColor=#d6b656;gradientColor=#ffd966;" parent="1" vertex="1">
          <mxGeometry x="854.5" y="320" width="135" height="60" as="geometry" />
        </mxCell>
        <mxCell id="VBYkh6h_Ym9ZZbjOG4hd-57" value="On-demand support" style="rounded=0;whiteSpace=wrap;html=1;fontStyle=1;fontSize=15;fillColor=#FFFFFF;strokeWidth=2;strokeColor=#000000;" parent="1" vertex="1">
          <mxGeometry x="854.5" y="435" width="135" height="60" as="geometry" />
        </mxCell>
        <mxCell id="VBYkh6h_Ym9ZZbjOG4hd-80" style="edgeStyle=orthogonalEdgeStyle;rounded=0;orthogonalLoop=1;jettySize=auto;html=1;exitX=0.5;exitY=0;exitDx=0;exitDy=0;entryX=0.5;entryY=1;entryDx=0;entryDy=0;" parent="1" source="VBYkh6h_Ym9ZZbjOG4hd-62" target="GbJGEbd5tJttWYPxzcn8-16" edge="1">
          <mxGeometry relative="1" as="geometry" />
        </mxCell>
        <UserObject label="Color scheme, style, slicers, features visulaization needed" linkTarget="_blank" id="VBYkh6h_Ym9ZZbjOG4hd-62">
          <mxCell style="shape=parallelogram;perimeter=parallelogramPerimeter;whiteSpace=wrap;html=1;fixedSize=1;fontStyle=1;fillColor=#FFFFFF;strokeWidth=2;strokeColor=#00994D;fontSize=15;" parent="1" vertex="1">
            <mxGeometry x="590" y="656" width="200" height="64" as="geometry" />
          </mxCell>
        </UserObject>
        <mxCell id="VBYkh6h_Ym9ZZbjOG4hd-70" style="edgeStyle=orthogonalEdgeStyle;rounded=0;orthogonalLoop=1;jettySize=auto;html=1;exitX=0.5;exitY=0;exitDx=0;exitDy=0;" parent="1" source="VBYkh6h_Ym9ZZbjOG4hd-68" target="GbJGEbd5tJttWYPxzcn8-11" edge="1">
          <mxGeometry relative="1" as="geometry" />
        </mxCell>
        <UserObject label="Hypothesis/Questions" linkTarget="_blank" id="VBYkh6h_Ym9ZZbjOG4hd-68">
          <mxCell style="shape=parallelogram;perimeter=parallelogramPerimeter;whiteSpace=wrap;html=1;fixedSize=1;fontStyle=1;fillColor=#FFFFFF;strokeWidth=2;strokeColor=#00994D;fontSize=15;" parent="1" vertex="1">
            <mxGeometry x="370" y="660" width="190" height="60" as="geometry" />
          </mxCell>
        </UserObject>
        <UserObject label="&lt;div style=&quot;font-size: 15px;&quot;&gt;How to access + Any sercurity protocol?&lt;/div&gt;" id="d2Tv3zx6Hwn4MQKzUQaN-2">
          <mxCell style="rounded=1;whiteSpace=wrap;html=1;absoluteArcSize=1;arcSize=14;strokeWidth=2;fillColor=#fff2cc;strokeColor=#000000;dashed=1;dashPattern=8 8;fontSize=15;" parent="1" vertex="1">
            <mxGeometry x="-210" y="350" width="100" height="130" as="geometry" />
          </mxCell>
        </UserObject>
        <mxCell id="DsvpxCO3rr_FjxoeKmz1-1" style="edgeStyle=orthogonalEdgeStyle;rounded=0;orthogonalLoop=1;jettySize=auto;html=1;exitX=0.5;exitY=0;exitDx=0;exitDy=0;" parent="1" source="Hjy9vanOZGFbr1e_LQjX-1" target="VBYkh6h_Ym9ZZbjOG4hd-1" edge="1">
          <mxGeometry relative="1" as="geometry" />
        </mxCell>
        <UserObject label="Caching/Log/Explore" linkTarget="_blank" id="Hjy9vanOZGFbr1e_LQjX-1">
          <mxCell style="shape=parallelogram;perimeter=parallelogramPerimeter;whiteSpace=wrap;html=1;fixedSize=1;fontStyle=1;fillColor=#FFFFFF;strokeWidth=2;strokeColor=#00994D;fontSize=15;" parent="1" vertex="1">
            <mxGeometry x="-52.430000000000014" y="664" width="190" height="60" as="geometry" />
          </mxCell>
        </UserObject>
        <UserObject label="&lt;h1&gt;&lt;font face=&quot;Helvetica&quot; style=&quot;font-size: 25px; background-color: rgb(252, 252, 252);&quot;&gt;STANDARD DA WORKFLOW&lt;/font&gt;&lt;/h1&gt;" link="https://thong-pm.github.io/workflow/" linkTarget="_blank" id="gST6C68P98JoXTQ15KgC-1">
          <mxCell style="text;html=1;align=center;verticalAlign=top;whiteSpace=wrap;rounded=0;fillColor=none;" parent="1" vertex="1">
            <mxGeometry x="-220" y="50" width="1270" height="690" as="geometry" />
          </mxCell>
        </UserObject>
        <UserObject label="Click to see my relevant experience" link="https://github.com/thong-pm/Data_Port/blob/cd68cfb2d7b5efbb78803d6258d5cab056a35c89/Logistics%20Data%20Pipeline/script_bulk_upload.ipynb" linkTarget="_blank" id="GbJGEbd5tJttWYPxzcn8-27">
          <mxCell style="rounded=1;whiteSpace=wrap;html=1;fontSize=15;fontStyle=1;strokeColor=#F2911B;strokeWidth=3;" parent="1" vertex="1">
            <mxGeometry x="180" y="120" width="150" height="60" as="geometry" />
          </mxCell>
        </UserObject>
        <UserObject label="Click to see my relevant experience" linkTarget="_blank" link="https://github.com/thong-pm/Data_Port/blob/main/PowerBI/1.%20Cashflow%20forecast%20tracking/foreast_track_query.sql" id="GbJGEbd5tJttWYPxzcn8-29">
          <mxCell style="rounded=1;whiteSpace=wrap;html=1;fontSize=15;fontStyle=1;strokeColor=#F2911B;strokeWidth=3;" parent="1" vertex="1">
            <mxGeometry x="390" y="120" width="150" height="60" as="geometry" />
          </mxCell>
        </UserObject>
        <UserObject label="Click to see my relevant experience" link="https://thong-pm.github.io/project/" linkTarget="_blank" id="GbJGEbd5tJttWYPxzcn8-28">
          <mxCell style="rounded=1;whiteSpace=wrap;html=1;fontSize=15;fontStyle=1;strokeColor=#F2911B;strokeWidth=3;" parent="1" vertex="1">
            <mxGeometry x="612.85" y="120" width="150" height="60" as="geometry" />
          </mxCell>
        </UserObject>
        <UserObject label="&lt;span style=&quot;font-size: 15px;&quot;&gt;Click to see my relevant experience&lt;/span&gt;" link="https://github.com/thong-pm/Data_Port/tree/main/SQL%20projects" linkTarget="_blank" id="ku7plGycsrgAr8IoSoVd-1">
          <mxCell style="rounded=1;whiteSpace=wrap;html=1;fontSize=15;fontStyle=1;strokeColor=#F2911B;strokeWidth=3;" parent="1" vertex="1">
            <mxGeometry x="-32.43" y="120" width="150" height="60" as="geometry" />
          </mxCell>
        </UserObject>
      </root>
    </mxGraphModel>
  </diagram>
  <diagram id="TUaG_xkpOXnEMPNmm8Ue" name="Label">
    <mxGraphModel dx="2194" dy="1968" grid="1" gridSize="10" guides="1" tooltips="1" connect="1" arrows="1" fold="1" page="1" pageScale="1" pageWidth="850" pageHeight="1100" math="0" shadow="0">
      <root>
        <mxCell id="0" />
        <mxCell id="1" parent="0" />
        <mxCell id="aOGyknKWtWyngRqdYhbf-1" value="" style="group" parent="1" vertex="1" connectable="0">
          <mxGeometry x="-100" y="-580" width="330" height="540" as="geometry" />
        </mxCell>
        <mxCell id="aOGyknKWtWyngRqdYhbf-2" value="" style="rounded=0;whiteSpace=wrap;html=1;strokeColor=#000000;strokeWidth=2;" parent="aOGyknKWtWyngRqdYhbf-1" vertex="1">
          <mxGeometry x="-9.999999999999972" y="60" width="330" height="480" as="geometry" />
        </mxCell>
        <mxCell id="aOGyknKWtWyngRqdYhbf-3" value="" style="shape=parallelogram;perimeter=parallelogramPerimeter;whiteSpace=wrap;html=1;fixedSize=1;fontStyle=1;fillColor=#FFFFFF;strokeWidth=2;strokeColor=#00994D;aspect=fixed;" parent="aOGyknKWtWyngRqdYhbf-1" vertex="1">
          <mxGeometry x="55.00000000000003" y="197.7114285714286" width="38.57142857142857" height="19.285714285714285" as="geometry" />
        </mxCell>
        <mxCell id="aOGyknKWtWyngRqdYhbf-4" value="Input" style="text;html=1;strokeColor=none;fillColor=none;align=left;verticalAlign=middle;whiteSpace=wrap;rounded=0;" parent="aOGyknKWtWyngRqdYhbf-1" vertex="1">
          <mxGeometry x="135.00000000000003" y="189.99714285714293" width="90" height="28.92857142857143" as="geometry" />
        </mxCell>
        <mxCell id="aOGyknKWtWyngRqdYhbf-5" value="" style="strokeWidth=2;html=1;shape=mxgraph.flowchart.database;whiteSpace=wrap;fillColor=#7EA6E0;fontStyle=1" parent="aOGyknKWtWyngRqdYhbf-1" vertex="1">
          <mxGeometry x="55.00000000000003" y="255.78428571428577" width="30" height="28.92857142857143" as="geometry" />
        </mxCell>
        <mxCell id="aOGyknKWtWyngRqdYhbf-6" value="Data Source" style="text;html=1;strokeColor=none;fillColor=none;align=left;verticalAlign=middle;whiteSpace=wrap;rounded=0;" parent="aOGyknKWtWyngRqdYhbf-1" vertex="1">
          <mxGeometry x="135.00000000000003" y="249.9985714285715" width="90" height="28.92857142857143" as="geometry" />
        </mxCell>
        <mxCell id="aOGyknKWtWyngRqdYhbf-7" value="" style="group" parent="aOGyknKWtWyngRqdYhbf-1" vertex="1" connectable="0">
          <mxGeometry x="50.00000000000003" y="310.0042857142858" width="280" height="273.7457142857142" as="geometry" />
        </mxCell>
        <mxCell id="aOGyknKWtWyngRqdYhbf-8" value="" style="rounded=0;whiteSpace=wrap;html=1;dashed=1;" parent="aOGyknKWtWyngRqdYhbf-7" vertex="1">
          <mxGeometry width="70" height="67.5" as="geometry" />
        </mxCell>
        <mxCell id="aOGyknKWtWyngRqdYhbf-9" value="&lt;h2&gt;&lt;font style=&quot;font-size: 14px; background-color: rgb(255, 255, 255);&quot;&gt;Activity&lt;/font&gt;&lt;/h2&gt;" style="text;html=1;strokeColor=none;fillColor=none;align=center;verticalAlign=middle;whiteSpace=wrap;rounded=0;fontStyle=1;labelBackgroundColor=none;" parent="aOGyknKWtWyngRqdYhbf-7" vertex="1">
          <mxGeometry x="5.384615384615385" y="4.153846153846167" width="59.23076923076923" height="6.230769230769231" as="geometry" />
        </mxCell>
        <mxCell id="aOGyknKWtWyngRqdYhbf-10" value="This project activities" style="text;html=1;strokeColor=none;fillColor=none;align=left;verticalAlign=middle;whiteSpace=wrap;rounded=0;" parent="aOGyknKWtWyngRqdYhbf-1" vertex="1">
          <mxGeometry x="135.00000000000003" y="330.00000000000006" width="90" height="28.92857142857143" as="geometry" />
        </mxCell>
        <mxCell id="aOGyknKWtWyngRqdYhbf-11" value="&lt;b&gt;&lt;font style=&quot;font-size: 15px;&quot;&gt;Label&lt;/font&gt;&lt;/b&gt;" style="text;html=1;strokeColor=none;fillColor=none;align=center;verticalAlign=middle;whiteSpace=wrap;rounded=0;" parent="aOGyknKWtWyngRqdYhbf-1" vertex="1">
          <mxGeometry x="125.00000000000001" y="70.00000000000006" width="60" height="28.92857142857143" as="geometry" />
        </mxCell>
        <UserObject label="" link="https://docs.google.com/spreadsheets/d/1ysNRclOhVv_gevUxZhAaRTj4ZWCQhzeqsKsF9FQ4uyw/edit#gid=0" id="aOGyknKWtWyngRqdYhbf-12">
          <mxCell style="rounded=1;whiteSpace=wrap;html=1;absoluteArcSize=1;arcSize=14;strokeWidth=2;fillColor=#fff2cc;strokeColor=#000000;dashed=1;dashPattern=8 8;" parent="aOGyknKWtWyngRqdYhbf-1" vertex="1">
            <mxGeometry x="50" y="420" width="66" height="86.07" as="geometry" />
          </mxCell>
        </UserObject>
        <mxCell id="aOGyknKWtWyngRqdYhbf-13" value="Note/Questions" style="text;html=1;strokeColor=none;fillColor=none;align=left;verticalAlign=middle;whiteSpace=wrap;rounded=0;" parent="aOGyknKWtWyngRqdYhbf-1" vertex="1">
          <mxGeometry x="135.00000000000003" y="459.99571428571437" width="145" height="28.92857142857143" as="geometry" />
        </mxCell>
        <mxCell id="aOGyknKWtWyngRqdYhbf-14" value="" style="rounded=0;whiteSpace=wrap;html=1;fontStyle=1;fontSize=14;fillColor=#FFFFFF;strokeWidth=1;strokeColor=#000000;" parent="aOGyknKWtWyngRqdYhbf-1" vertex="1">
          <mxGeometry x="55" y="140.00000000000003" width="50" height="20" as="geometry" />
        </mxCell>
        <mxCell id="aOGyknKWtWyngRqdYhbf-15" value="Process" style="text;html=1;strokeColor=none;fillColor=none;align=left;verticalAlign=middle;whiteSpace=wrap;rounded=0;" parent="aOGyknKWtWyngRqdYhbf-1" vertex="1">
          <mxGeometry x="135.00000000000003" y="135.53714285714295" width="90" height="28.92857142857143" as="geometry" />
        </mxCell>
      </root>
    </mxGraphModel>
  </diagram>
</mxfile>
